<svg width="167" height="45" viewBox="0 0 167 45" fill="none" xmlns="http://www.w3.org/2000/svg">
<path d="M61.36 7.2C63.44 7.2 65.3067 7.6 66.96 8.4C68.6133 9.17333 70.0133 10.2 71.16 11.48C72.3333 12.7333 73.2267 14.16 73.84 15.76C74.48 17.36 74.8 18.9867 74.8 20.64C74.8 21.84 74.68 22.9467 74.44 23.96C74.2 24.9733 73.8667 25.9067 73.44 26.76C73.0133 27.6133 72.52 28.4 71.96 29.12C71.4267 29.8133 70.84 30.4533 70.2 31.04L71.52 32.52C72.56 33.48 73.6933 34.3333 74.92 35.08C76.1467 35.8533 77.3867 36.4933 78.64 37C79.8933 37.5333 81.1333 37.9333 82.36 38.2C83.5867 38.4667 84.7067 38.6 85.72 38.6C86.6 38.6 87.5333 38.52 88.52 38.36C89.5333 38.2 90.5467 37.96 91.56 37.64C92.6 37.32 93.6267 36.8933 94.64 36.36C95.6533 35.8533 96.6133 35.24 97.52 34.52L97.76 34.88C96.88 35.84 95.8933 36.68 94.8 37.4C93.7067 38.1467 92.56 38.76 91.36 39.24C90.16 39.72 88.92 40.08 87.64 40.32C86.3867 40.5867 85.1467 40.72 83.92 40.72C82.6933 40.72 81.4667 40.6133 80.24 40.4C79.0133 40.1867 77.7867 39.8267 76.56 39.32C75.3333 38.8133 74.1067 38.12 72.88 37.24C71.6533 36.3867 70.4267 35.3067 69.2 34L67.84 32.56C67.3867 32.8533 66.8667 33.12 66.28 33.36C65.72 33.5733 65.12 33.76 64.48 33.92C63.84 34.08 63.1867 34.2 62.52 34.28C61.8533 34.36 61.2267 34.4 60.64 34.4C58.7733 34.4 57.04 34.0267 55.44 33.28C53.8667 32.5067 52.4933 31.5067 51.32 30.28C50.1733 29.0267 49.2667 27.6 48.6 26C47.9333 24.4 47.6 22.76 47.6 21.08C47.6 19.3733 47.9067 17.6933 48.52 16.04C49.1333 14.36 50.0267 12.8667 51.2 11.56C52.4 10.2533 53.8533 9.2 55.56 8.4C57.2667 7.6 59.2 7.2 61.36 7.2ZM61.32 33C63.1067 32.92 64.68 32.52 66.04 31.8C67.4 31.0533 68.52 30.12 69.4 29C70.3067 27.8533 70.9867 26.6 71.44 25.24C71.8933 23.88 72.12 22.5467 72.12 21.24C72.12 19.7733 71.84 18.2933 71.28 16.8C70.7467 15.28 69.9867 13.92 69 12.72C68.04 11.4933 66.8667 10.5067 65.48 9.76C64.0933 8.98667 62.56 8.6 60.88 8.6C59.2267 8.6 57.7333 8.97333 56.4 9.72C55.0933 10.44 53.9867 11.3733 53.08 12.52C52.1733 13.6667 51.48 14.9467 51 16.36C50.52 17.7467 50.28 19.12 50.28 20.48C50.28 21.9467 50.5467 23.4267 51.08 24.92C51.64 26.4133 52.4133 27.76 53.4 28.96C54.3867 30.16 55.5467 31.1333 56.88 31.88C58.24 32.6267 59.72 33 61.32 33ZM79.2194 34V33.6C79.4327 33.6 79.6194 33.52 79.7794 33.36C79.9394 33.2 80.0727 33.0133 80.1794 32.8C80.286 32.5867 80.366 32.36 80.4194 32.12C80.4727 31.8533 80.4994 31.6133 80.4994 31.4V20.32C80.4994 19.8667 80.4327 19.44 80.2994 19.04C80.166 18.6133 79.7794 18.3867 79.1394 18.36V18L83.1394 16.72V31.4C83.1394 31.6133 83.166 31.8533 83.2194 32.12C83.2727 32.36 83.3527 32.5867 83.4594 32.8C83.566 33.0133 83.6994 33.2 83.8594 33.36C84.0194 33.52 84.206 33.6 84.4194 33.6V34H79.2194ZM79.4194 12.88C79.4194 12.3467 79.5927 11.8933 79.9394 11.52C80.3127 11.1467 80.766 10.96 81.2994 10.96C81.8327 10.96 82.286 11.1467 82.6594 11.52C83.0327 11.8933 83.2194 12.3467 83.2194 12.88C83.2194 13.4133 83.0327 13.8533 82.6594 14.2C82.286 14.5467 81.8327 14.72 81.2994 14.72C80.766 14.72 80.3127 14.5467 79.9394 14.2C79.5927 13.8533 79.4194 13.4133 79.4194 12.88ZM103.458 32.56C103.245 32.56 103.045 32.6133 102.858 32.72C102.672 32.8 102.458 32.9067 102.218 33.04C101.765 33.3067 101.192 33.5867 100.498 33.88C99.8051 34.1467 98.8984 34.28 97.7784 34.28C96.4184 34.28 95.1518 34.0667 93.9784 33.64C92.8318 33.1867 91.8318 32.5733 90.9784 31.8C90.1518 31 89.4984 30.08 89.0184 29.04C88.5651 27.9733 88.3384 26.8267 88.3384 25.6C88.3384 24.4533 88.5384 23.36 88.9384 22.32C89.3651 21.28 89.9651 20.36 90.7384 19.56C91.5118 18.76 92.4584 18.12 93.5784 17.64C94.7251 17.16 96.0184 16.92 97.4584 16.92C98.4451 16.92 99.2451 17.04 99.8584 17.28C100.472 17.4933 100.992 17.7067 101.418 17.92C101.658 18.0533 101.885 18.16 102.098 18.24C102.338 18.32 102.578 18.36 102.818 18.36V21.4H102.418C102.285 20.8933 102.045 20.4533 101.698 20.08C101.352 19.68 100.952 19.3467 100.498 19.08C100.045 18.8133 99.5518 18.6133 99.0184 18.48C98.4851 18.3467 97.9651 18.28 97.4584 18.28C96.3651 18.28 95.4051 18.48 94.5784 18.88C93.7518 19.2533 93.0718 19.76 92.5384 20.4C92.0051 21.0133 91.6051 21.72 91.3384 22.52C91.0718 23.32 90.9384 24.1467 90.9384 25C90.9384 25.9867 91.0984 26.96 91.4184 27.92C91.7384 28.8533 92.1918 29.6933 92.7784 30.44C93.3918 31.1867 94.1251 31.7867 94.9784 32.24C95.8318 32.6933 96.7918 32.92 97.8584 32.92C98.6051 32.92 99.2851 32.8133 99.8984 32.6C100.538 32.3867 101.072 32.1067 101.498 31.76C101.952 31.4133 102.312 31.04 102.578 30.64C102.845 30.2133 103.005 29.8133 103.058 29.44H103.458V32.56ZM122.2 31.4C122.2 31.6133 122.227 31.8533 122.28 32.12C122.334 32.36 122.414 32.5867 122.52 32.8C122.654 33.0133 122.787 33.2 122.92 33.36C123.08 33.52 123.267 33.6 123.48 33.6V34H118.32V33.6C118.507 33.6 118.68 33.52 118.84 33.36C119 33.2 119.134 33.0133 119.24 32.8C119.374 32.5867 119.467 32.36 119.52 32.12C119.574 31.8533 119.6 31.6133 119.6 31.4V23.96C119.6 23 119.467 22.16 119.2 21.44C118.934 20.72 118.574 20.12 118.12 19.64C117.667 19.16 117.147 18.8133 116.56 18.6C116 18.36 115.427 18.24 114.84 18.24C114.254 18.24 113.667 18.36 113.08 18.6C112.52 18.8133 112.014 19.12 111.56 19.52C111.134 19.92 110.774 20.4133 110.48 21C110.214 21.56 110.08 22.1867 110.08 22.88V31.4C110.08 31.6133 110.107 31.8533 110.16 32.12C110.214 32.36 110.294 32.5867 110.4 32.8C110.534 33.0133 110.667 33.2 110.8 33.36C110.96 33.52 111.147 33.6 111.36 33.6V34H106.16V33.6C106.347 33.6 106.52 33.52 106.68 33.36C106.84 33.2 106.974 33.0133 107.08 32.8C107.214 32.5867 107.307 32.36 107.36 32.12C107.414 31.8533 107.44 31.6133 107.44 31.4V10.96C107.44 10.5067 107.374 10.08 107.24 9.68C107.107 9.28 106.72 9.06667 106.08 9.04V8.64L110.08 7.4V18.96C110.267 18.7467 110.507 18.52 110.8 18.28C111.094 18.0133 111.44 17.7733 111.84 17.56C112.267 17.32 112.747 17.1333 113.28 17C113.84 16.84 114.494 16.76 115.24 16.76C116.494 16.76 117.56 16.9733 118.44 17.4C119.32 17.8267 120.04 18.3867 120.6 19.08C121.16 19.7467 121.56 20.4933 121.8 21.32C122.067 22.12 122.2 22.9067 122.2 23.68V31.4ZM129.609 25.92C129.716 26.8533 129.943 27.7467 130.289 28.6C130.636 29.4267 131.089 30.16 131.649 30.8C132.236 31.44 132.943 31.96 133.769 32.36C134.596 32.7333 135.556 32.92 136.649 32.92C137.236 32.92 137.849 32.84 138.489 32.68C139.156 32.4933 139.769 32.24 140.329 31.92C140.889 31.6 141.383 31.2133 141.809 30.76C142.263 30.28 142.569 29.7467 142.729 29.16H143.089V32.16C142.929 32.16 142.743 32.2133 142.529 32.32C142.343 32.4267 142.116 32.56 141.849 32.72C141.316 33.04 140.596 33.3867 139.689 33.76C138.783 34.1067 137.583 34.28 136.089 34.28C134.889 34.28 133.743 34.1067 132.649 33.76C131.583 33.4133 130.636 32.88 129.809 32.16C128.983 31.44 128.316 30.52 127.809 29.4C127.329 28.28 127.089 26.9467 127.089 25.4C127.089 24.4133 127.249 23.4133 127.569 22.4C127.916 21.3867 128.423 20.48 129.089 19.68C129.783 18.8533 130.663 18.1867 131.729 17.68C132.796 17.1733 134.076 16.92 135.569 16.92C136.903 16.92 138.063 17.1467 139.049 17.6C140.063 18.0533 140.889 18.68 141.529 19.48C142.196 20.28 142.689 21.2267 143.009 22.32C143.329 23.4133 143.489 24.6133 143.489 25.92H129.609ZM135.409 18.24C134.476 18.24 133.663 18.4267 132.969 18.8C132.303 19.1733 131.729 19.6533 131.249 20.24C130.769 20.8267 130.396 21.4933 130.129 22.24C129.863 22.9867 129.689 23.7333 129.609 24.48H141.009C140.983 23.7067 140.836 22.9467 140.569 22.2C140.329 21.4533 139.983 20.7867 139.529 20.2C139.076 19.6133 138.503 19.1467 137.809 18.8C137.116 18.4267 136.316 18.24 135.409 18.24ZM162.903 31.4C162.903 31.6133 162.93 31.8533 162.983 32.12C163.037 32.36 163.117 32.5867 163.223 32.8C163.357 33.0133 163.49 33.2 163.623 33.36C163.783 33.52 163.97 33.6 164.183 33.6V34H159.023V33.6C159.21 33.6 159.383 33.52 159.543 33.36C159.703 33.2 159.837 33.0133 159.943 32.8C160.077 32.5867 160.17 32.36 160.223 32.12C160.277 31.8533 160.303 31.6133 160.303 31.4V23.96C160.303 23 160.17 22.16 159.903 21.44C159.637 20.72 159.277 20.12 158.823 19.64C158.37 19.16 157.85 18.8133 157.263 18.6C156.703 18.36 156.13 18.24 155.543 18.24C154.957 18.24 154.37 18.36 153.783 18.6C153.223 18.84 152.717 19.16 152.263 19.56C151.837 19.9333 151.477 20.3867 151.183 20.92C150.917 21.4267 150.783 21.96 150.783 22.52V31.4C150.783 31.6133 150.81 31.8533 150.863 32.12C150.917 32.36 150.997 32.5867 151.103 32.8C151.237 33.0133 151.37 33.2 151.503 33.36C151.663 33.52 151.85 33.6 152.063 33.6V34H146.863V33.6C147.05 33.6 147.223 33.52 147.383 33.36C147.543 33.2 147.677 33.0133 147.783 32.8C147.917 32.5867 148.01 32.36 148.063 32.12C148.117 31.8533 148.143 31.6133 148.143 31.4V20.36C148.143 19.9067 148.077 19.48 147.943 19.08C147.81 18.6533 147.423 18.4267 146.783 18.4V18.04L150.783 16.76V18.96C150.97 18.7467 151.21 18.52 151.503 18.28C151.797 18.0133 152.143 17.7733 152.543 17.56C152.97 17.32 153.45 17.1333 153.983 17C154.543 16.84 155.197 16.76 155.943 16.76C157.197 16.76 158.263 16.9733 159.143 17.4C160.023 17.8267 160.743 18.3867 161.303 19.08C161.863 19.7467 162.263 20.4933 162.503 21.32C162.77 22.12 162.903 22.9067 162.903 23.68V31.4Z" fill="white"/>
<path d="M39.2355 36.9107C39.2759 37.9639 38.8187 38.9948 38.1375 39.7612C37.4607 40.5231 36.5777 41.052 35.6634 41.4554C33.8571 42.2577 31.8986 42.6117 29.9579 42.8851C27.8783 43.1765 25.7941 43.3826 23.701 43.5036C20.6757 43.6919 17.6369 43.6964 14.6071 43.5261C11.3084 43.3423 7.07735 43.1361 4.17752 41.2134C2.82845 40.3214 3.28113 36.4625 4.41957 35.3061C5.33391 34.3739 6.8085 34.0781 7.98272 33.7509C9.5873 33.3027 11.2187 32.9531 12.8592 32.6886C13.5494 32.5766 14.2396 32.4825 14.9298 32.4018C20.8057 31.6981 26.7533 31.9805 32.6381 32.4914C34.0589 32.6124 35.5155 32.7604 36.8018 33.4237C38.0837 34.087 39.1773 35.3913 39.2355 36.9107Z" fill="white"/>
<path d="M35.3721 37.2378C35.4124 38.2911 34.9553 39.3175 34.274 40.0839C33.5973 40.8503 32.7143 41.3792 31.8 41.7826C29.9893 42.5848 28.0351 42.9344 26.0944 43.2078C25.2966 43.3199 24.4988 43.4185 23.701 43.5036C20.6757 43.6919 17.6369 43.6964 14.6071 43.5261C11.3084 43.3423 7.07735 43.1361 4.17752 41.2133C2.82845 40.3214 3.28113 36.4625 4.41957 35.3061C5.33391 34.3739 6.8085 34.0781 7.98272 33.7509C9.5873 33.3027 11.2187 32.9531 12.8592 32.6886C13.5494 32.5766 14.2396 32.4825 14.9298 32.4018C19.5417 32.1598 24.1761 32.4197 28.7747 32.8141C30.1954 32.9396 31.6521 33.0875 32.9339 33.7509C34.2202 34.4142 35.3094 35.714 35.3721 37.2378Z" fill="#F7CA49"/>
<path d="M36.0937 34.9745C35.4976 35.5347 34.6864 35.7454 33.911 35.9202C28.0665 37.2513 22.0742 37.8564 16.0996 37.7219C13.4911 37.6637 10.8871 37.4664 8.30106 37.1303C7.30596 37.0003 6.28855 36.839 5.41458 36.3146C2.10245 34.3336 4.28063 29.7888 6.87571 28.4487C8.36376 27.6868 10.04 27.4627 11.6804 27.2968C13.9617 27.0683 16.2476 26.9293 18.5378 26.889C21.6528 26.8262 24.7723 26.9428 27.8783 27.2251C29.8279 27.4044 31.8 27.6599 33.6017 28.4711C34.8119 29.0179 35.9682 29.8605 36.5733 31.1065C37.1739 32.348 37.0797 34.0467 36.0937 34.9745Z" fill="white"/>
<path d="M32.8936 34.9744C32.2975 35.5347 31.4907 35.7453 30.7109 35.9201C25.9062 37.0182 21.0119 37.6143 16.0996 37.7219C13.4911 37.6636 10.8871 37.4664 8.30106 37.1303C7.30596 37.0003 6.28855 36.8389 5.41458 36.3146C2.10245 34.3335 4.28063 29.7888 6.87571 28.4487C8.36376 27.6868 10.04 27.4627 11.6804 27.2968C13.9617 27.0682 16.2476 26.9293 18.5378 26.8889C20.5861 26.9248 22.6344 27.0413 24.6781 27.2251C26.6278 27.4044 28.5998 27.6599 30.4016 28.4711C31.6118 29.0179 32.7681 29.8605 33.3732 31.1065C33.9737 32.348 33.8796 34.0467 32.8936 34.9744Z" fill="#FD6229"/>
<path d="M1.27588 31.8454C1.72267 32.3806 2.50334 32.3439 3.16929 32.2529C8.04854 31.5867 12.8546 30.3111 17.4582 28.4604C17.6453 28.3852 17.8529 28.2875 17.9213 28.0868C18.0007 27.8542 17.8523 27.6064 17.6938 27.4257C16.4902 26.053 14.5045 25.9701 12.7457 26.0621C10.8444 26.1615 8.94744 26.3538 7.06262 26.6381C6.52626 26.7191 5.97015 26.8159 5.52442 27.1446C5.04503 27.4982 5.12142 27.9078 4.91532 28.3815C4.68248 28.9167 4.68798 28.9695 4.13356 29.3923C3.13415 30.1545 2.16945 30.9425 1.27588 31.8454Z" fill="#F7CA49"/>
<path d="M37.4966 30.8734C37.0618 30.9407 36.627 30.99 36.1923 31.0214C35.5917 31.0169 34.9866 30.9989 34.386 30.981C32.8218 30.9317 31.1904 31.0124 29.6352 30.8286C27.9589 30.6314 28.5953 29.242 29.5411 28.238C29.8817 27.875 30.3119 27.624 30.7332 27.3775C32.1451 26.5483 33.5659 25.7237 35.0494 25.0738C35.883 27.001 36.6988 28.9283 37.4966 30.8734Z" fill="#F7CA49"/>
<path d="M37.4966 30.8734C37.0618 30.9407 36.627 30.99 36.1923 31.0214C35.5917 31.0169 34.9866 30.9989 34.386 30.981C32.8218 30.9317 31.1904 31.0124 29.6352 30.8286C27.9589 30.6314 28.5953 29.242 29.5411 28.238C29.8817 27.875 30.3119 27.624 30.7332 27.3775C32.1451 26.5483 33.5659 25.7237 35.0494 25.0738C35.883 27.001 36.6988 28.9283 37.4966 30.8734Z" fill="#F7CA49"/>
<path d="M34.5474 26.3243C31.8 29.0493 29.057 31.7698 26.3096 34.4949C26.0721 34.7324 25.8121 34.9789 25.4894 35.0327C25.2294 35.0775 24.9695 34.9879 24.723 34.8983C19.6852 33.1144 14.6385 31.3306 9.76657 29.0851C9.35875 28.9014 8.95082 28.7086 8.54749 28.5159C8.91952 27.3058 10.9767 26.2794 11.8687 25.4368C12.29 25.0379 12.7651 24.6928 13.2984 24.5046C14.1187 24.2132 15.0105 24.3163 15.8711 24.4149C21.0343 25.0021 26.2199 25.3472 31.41 25.4548C31.7552 25.4592 32.1048 25.4682 32.4544 25.4816C33.1267 25.513 33.799 25.5892 34.4443 25.7819C34.5519 25.8133 34.6729 25.8626 34.7043 25.9791C34.7447 26.1091 34.6415 26.2346 34.5474 26.3243Z" fill="white"/>
<path d="M32.4544 25.4816C29.7248 28.1843 27.0043 30.8869 24.2748 33.5895C24.0372 33.8271 23.7772 34.0736 23.4545 34.1274C23.1947 34.1722 22.9347 34.0826 22.6881 33.9929C18.3496 32.4556 14.002 30.9183 9.76657 29.0851C9.35875 28.9014 8.95082 28.7086 8.54749 28.5159C8.91952 27.3058 10.9767 26.2794 11.8687 25.4368C12.29 25.0379 12.7651 24.6928 13.2984 24.5046C14.1187 24.2132 15.0105 24.3163 15.8711 24.4149C21.0343 25.0021 26.2199 25.3472 31.41 25.4548C31.7552 25.4592 32.1048 25.4682 32.4544 25.4816Z" fill="#F7CA49"/>
<path d="M38.5812 27.9826C37.2501 28.4487 35.8024 28.5294 34.4309 28.2201C34.5789 28.1798 34.7223 28.135 34.8657 28.0857C35.3856 26.1763 34.5071 24.0653 33.1088 22.7476C31.7149 21.4299 29.8862 20.7621 28.08 20.2646C25.1891 19.4668 22.2175 19.041 19.2371 18.9738C23.4456 18.6511 27.7079 19.0366 31.8001 20.1615C33.6062 20.659 35.4304 21.3268 36.8288 22.6445C38.2227 23.9622 39.1056 26.0733 38.5812 27.9826Z" fill="white"/>
<path d="M34.8656 28.0857C34.7222 28.135 34.5788 28.1798 34.4308 28.2201C34.2695 28.1843 34.1081 28.1439 33.9468 28.0946C32.3916 27.6375 30.8542 26.6694 29.281 27.0235C28.9001 27.1086 28.5416 27.27 28.192 27.4537C27.3001 27.9288 26.4619 28.5832 25.4759 28.6459C24.7587 28.6907 24.0686 28.4173 23.3738 28.1843C22.8449 28.0139 22.316 27.8661 21.7737 27.9064C21.218 27.9512 20.7116 28.1843 20.2275 28.4801C19.8285 28.7221 19.4431 29.009 19.0532 29.2734C18.1971 29.8516 17.1304 30.3312 16.1937 29.9143C15.8934 29.7798 15.6424 29.5692 15.4049 29.3316C15.0283 28.9597 14.6878 28.5249 14.2575 28.238C13.1998 27.5299 11.8238 27.8302 10.6988 28.4577C10.6092 28.5115 10.5195 28.5653 10.4299 28.619C9.8024 29.009 9.21973 29.4885 8.61921 29.9278C8.03653 30.3491 7.22527 29.9502 7.19387 29.1972C7.18489 28.9597 7.16257 28.7221 7.11771 28.489C7.07284 28.1932 6.99668 27.8974 6.89809 27.6151C6.08234 27.8885 4.1775 28.749 3.317 28.1798C3.17355 28.0902 3.0615 27.9602 2.98982 27.7809C2.97637 27.763 2.97188 27.745 2.96291 27.7271C2.69394 27.0055 3.447 25.1679 3.79212 24.5046C4.59441 22.9404 6.11823 22.3891 7.59731 21.775C10.1655 20.7083 12.8277 19.9195 15.5483 19.4355C16.7719 19.2203 18 19.0635 19.237 18.9738C22.2175 19.0411 25.1891 19.4668 28.0799 20.2646C29.8862 20.7621 31.7148 21.4299 33.1087 22.7476C34.507 24.0653 35.3856 26.1764 34.8656 28.0857Z" fill="#00B269"/>
<path d="M37.2904 20.901C37.1783 21.3537 37.0214 21.7974 36.7391 22.156C36.4612 22.5101 36.0802 22.7521 35.6903 22.9717C34.0857 23.8726 32.3333 24.4911 30.536 24.7869C29.039 25.029 27.5197 25.0514 26.0048 25.0514C25.1577 25.0514 24.3105 25.0469 23.4635 25.029C20.1647 24.9886 16.866 24.8586 13.5762 24.7287C11.4025 24.6435 9.21973 24.5539 7.11771 23.9936C5.54004 23.5813 3.87725 22.7342 3.32149 21.1117C2.89124 19.8612 3.24982 18.4584 3.74725 17.2303C4.01622 16.567 4.32993 15.9171 4.59441 15.2583C6.09132 12.3853 8.74023 10.3281 11.6176 9.15381C14.1768 8.11847 16.9152 7.72406 19.6538 7.58958C20.0168 7.57166 20.3754 7.55823 20.7385 7.54925C23.4231 7.47753 26.1347 7.61201 28.7208 8.3829C31.3069 9.15827 33.763 10.6194 35.4572 12.8425C37.1469 15.07 37.9716 18.1267 37.2904 20.901Z" fill="white"/>
<path d="M32.9877 20.901C32.8711 21.3537 32.7187 21.7974 32.4364 22.156C32.1585 22.5101 31.7775 22.7521 31.3876 22.9717C29.7831 23.8726 28.0306 24.4911 26.2333 24.7869C25.3189 24.9348 24.3913 25.0021 23.4635 25.0289C20.1647 24.9886 16.866 24.8586 13.5762 24.7287C11.4025 24.6435 9.21973 24.5539 7.11771 23.9936C5.54005 23.5813 3.87725 22.7342 3.32149 21.1117C2.89124 19.8612 3.24982 18.4584 3.74725 17.2303C4.01622 16.567 4.32993 15.9171 4.59441 15.2582C6.09132 12.3853 8.74024 10.3281 11.6176 9.1538C14.1768 8.11847 16.9152 7.72405 19.6538 7.58957C21.2673 7.68819 22.8628 7.92126 24.4136 8.38289C27.0042 9.15826 29.4603 10.6194 31.1545 12.8425C32.8443 15.07 33.6644 18.1267 32.9877 20.901Z" fill="#F7CA49"/>
<path d="M40.1398 30.6462C39.7805 29.771 39.4084 28.8932 39.0365 28.016C39.5832 25.8516 38.4991 23.6171 37.1573 22.3379C37.4676 21.9033 37.6269 21.4047 37.7261 21.009C37.7261 21.0083 37.7264 21.0074 37.7266 21.0068C38.4029 18.2516 37.6712 15.019 35.8165 12.5695C34.1844 10.4274 31.7748 8.83086 28.8476 7.95239C26.7521 7.32683 24.4473 7.0589 21.4743 7.08928C21.3564 4.24484 21.3381 4.83018 21.3712 3.78242C21.3846 3.35198 21.4068 2.65435 21.4343 1.35972C21.4394 1.11143 21.2423 0.905542 20.9937 0.900269C20.9907 0.900269 20.9874 0.900269 20.9841 0.900269C20.74 0.900269 20.5396 1.09561 20.5343 1.34082C20.507 2.63018 20.4851 3.32539 20.4717 3.75408C20.4362 4.86647 20.456 4.2621 20.5743 7.10546C13.8585 7.30541 7.32781 9.05756 4.20268 15.0327C4.18609 15.0587 4.17005 15.0854 4.16115 15.1045C4.15511 15.1175 4.15621 15.1314 4.15148 15.1447C3.87786 15.8267 3.5976 16.3993 3.32861 17.0627C2.6391 18.7752 2.50199 20.1077 2.89684 21.2553C3.16799 22.0494 3.66545 22.6623 4.26135 23.1383C3.92824 23.4584 3.63007 23.833 3.39145 24.2972C3.3787 24.3218 2.13681 26.7904 2.54155 27.8842C2.81104 28.612 3.42979 28.8311 4.13709 28.8147C4.07051 28.873 3.98504 28.9395 3.86056 29.0345C3.03219 29.6662 1.95334 30.5209 0.955999 31.529C0.792961 31.6938 0.781755 31.9558 0.93051 32.134C1.3548 32.6422 1.98322 32.7578 2.50771 32.7578C2.79753 32.7578 3.05549 32.7226 3.23017 32.6987C3.27312 32.6928 3.31586 32.6856 3.35871 32.6796C3.32157 32.883 3.29235 33.0856 3.28598 33.2847C3.26653 33.8946 3.36926 34.6473 3.79948 35.3623C3.09614 36.411 2.7961 38.2283 2.93046 39.5078C3.03549 40.5071 3.3809 41.2273 3.92934 41.5905C6.88998 43.5515 11.0543 43.7792 14.5834 43.9766C19.5525 44.2549 24.7461 44.0708 30.0199 43.3295C31.944 43.059 33.9818 42.6949 35.8479 41.8681C36.9815 41.366 37.8413 40.7738 38.4758 40.058C39.2877 39.1426 39.7285 37.9892 39.6852 36.8937C39.6292 35.4727 38.7235 34.077 37.3538 33.232C37.4178 32.6537 37.3608 32.0478 37.1767 31.4677C38.0481 31.4513 38.9232 31.3967 39.7927 31.2619C40.0797 31.2174 40.2508 30.9155 40.1398 30.6462ZM3.64699 20.5893C3.64941 20.5894 3.65149 20.5904 3.6538 20.5904C3.70104 20.5904 3.74916 20.5827 3.79662 20.5669L4.8902 20.2013C5.12575 20.1224 5.25297 19.8675 5.17409 19.6317C5.09499 19.396 4.8412 19.2681 4.60456 19.3478L3.58876 19.6875C3.59887 19.4898 3.62282 19.2836 3.66149 19.0684C3.68676 19.068 3.71236 19.0662 3.73796 19.0613L4.53974 18.9108C4.78407 18.8647 4.94469 18.6296 4.89877 18.3852C4.85241 18.1411 4.61796 17.9798 4.37319 18.0262L3.90605 18.114C3.95142 17.9737 4.00229 17.8293 4.05744 17.6819C4.65191 17.7943 5.23957 17.9616 5.80405 18.1829C6.03634 18.2739 6.29671 18.1586 6.3872 17.928C6.47795 17.6966 6.36369 17.4356 6.13232 17.3448C5.57311 17.1258 4.99183 16.9616 4.40417 16.8399C4.45723 16.7187 4.50744 16.5966 4.56105 16.4756C4.63521 16.3083 4.70409 16.1399 4.77649 15.9723C5.29788 16.38 6.01002 16.5118 6.64076 16.2827C6.87433 16.1981 6.99518 15.9401 6.91037 15.7063C6.82599 15.4728 6.56869 15.3515 6.33403 15.4367C5.94665 15.5775 5.45402 15.4455 5.18727 15.1307C5.35481 14.8355 5.53532 14.547 5.73132 14.2657C5.75625 14.2805 5.78141 14.2948 5.8069 14.3056C6.20658 14.475 6.6278 14.5925 7.0589 14.6551C7.31042 14.6904 7.53381 14.5161 7.56889 14.2744C7.60448 14.0285 7.4342 13.8002 7.1881 13.7644C6.89279 13.7215 6.60297 13.6473 6.32436 13.5431C6.32436 13.5425 6.32436 13.5416 6.32414 13.5407C6.3226 13.5252 6.31381 13.5127 6.31073 13.4977C6.6534 13.0838 7.03177 12.6924 7.43497 12.3185C7.78711 12.6555 8.28163 12.8332 8.77167 12.7774C9.01865 12.7492 9.19618 12.5264 9.16806 12.2795C9.13993 12.0323 8.91318 11.8541 8.67016 11.8831C8.48262 11.9042 8.28487 11.8367 8.12853 11.7196C8.64676 11.3023 9.19904 10.9139 9.79098 10.5645C10.2559 10.8483 10.7598 11.055 11.2922 11.174C11.5385 11.2282 11.7759 11.0722 11.8294 10.8328C11.8834 10.5902 11.7307 10.3498 11.4882 10.2956C11.2293 10.2377 10.9795 10.1527 10.7386 10.0466C11.0796 9.87736 11.4285 9.71732 11.7879 9.57112C11.8006 9.56593 11.8141 9.56172 11.827 9.55656C12.1154 9.83169 12.4581 10.0456 12.8353 10.1835C13.0735 10.2697 13.3284 10.145 13.4125 9.91521C13.4978 9.68164 13.3776 9.42324 13.1442 9.33799C13.0367 9.29874 12.9337 9.24639 12.8336 9.18846C13.3158 9.02743 13.8168 8.88653 14.3341 8.75964C14.3527 8.8152 14.3826 8.86799 14.4239 8.91457C14.6898 9.21406 15.0064 9.4562 15.3648 9.63462C15.5897 9.74592 15.8586 9.65242 15.9682 9.43203C16.0787 9.20967 15.9882 8.9394 15.7656 8.82866C15.6118 8.75214 15.4701 8.65096 15.3369 8.53964C16.9154 8.23144 18.6778 8.05429 20.7501 7.99875C23.9989 7.91372 26.4155 8.16575 28.5895 8.8146C30.5024 9.38874 33.1851 10.601 35.0997 13.1138C36.7938 15.3512 37.4655 18.2932 36.8527 20.7915C36.7273 21.2918 36.5836 21.6264 36.3871 21.8762C36.167 22.1564 35.862 22.359 35.47 22.5778C33.9022 23.4616 32.2185 24.0548 30.4662 24.3407C28.9722 24.5824 27.4432 24.6026 26.005 24.6026C22.0251 24.6026 18.1916 24.462 13.5925 24.2781C11.4895 24.1979 9.31484 24.115 7.23051 23.56C6.28514 23.3116 5.15212 22.8574 4.4023 22.0429C4.44548 22.0564 4.4903 22.0643 4.53622 22.0643C4.59621 22.0643 4.65707 22.0522 4.71552 22.0268C5.03698 21.887 5.34921 21.72 5.64342 21.5302C5.85217 21.3955 5.91237 21.1171 5.77768 20.9081C5.64342 20.6996 5.36481 20.6387 5.15563 20.7739C4.90229 20.9371 4.63356 21.0811 4.35649 21.2015C4.17532 21.2802 4.07754 21.4637 4.0927 21.6503C3.86296 21.3075 3.72555 20.9713 3.64699 20.5893ZM3.38573 27.5718C3.34915 27.473 3.35036 27.3171 3.3709 27.1356C3.37925 27.1729 3.3842 27.2107 3.40265 27.2461C3.51703 27.4661 3.78815 27.5525 4.00954 27.4382L4.65707 27.102C4.87768 26.9873 4.96359 26.7157 4.84911 26.4951C4.73442 26.2747 4.46305 26.189 4.24223 26.3031L3.59469 26.6393C3.52043 26.6779 3.46813 26.7377 3.42693 26.8039C3.47868 26.564 3.55426 26.2996 3.64611 26.0271C3.87155 26.0072 4.096 25.9609 4.30243 25.8702C4.52985 25.7702 4.63334 25.5048 4.53337 25.2772C4.44767 25.0824 4.24102 24.9875 4.03997 25.0246C4.09095 24.9131 4.14192 24.8053 4.19169 24.7085C4.41175 24.2806 4.70036 23.9422 5.02918 23.653C5.6788 24.0186 6.37566 24.266 7.00024 24.4301C9.18014 25.0104 11.4058 25.0955 13.5573 25.1774C18.1656 25.3618 22.0084 25.5026 26.005 25.5026C27.4799 25.5026 29.05 25.4815 30.6105 25.229C32.4681 24.926 34.2518 24.2978 35.9105 23.3627C36.116 23.2479 36.3247 23.1228 36.5233 22.9761C37.6462 24.0389 38.5712 25.8652 38.204 27.6348C36.8692 28.0481 35.4122 28.0602 34.0736 27.6647C32.5266 27.2071 30.9179 26.1936 29.1805 26.5852C29.0174 26.6219 28.8595 26.671 28.7051 26.7277C28.7657 26.6552 28.8334 26.5891 28.8903 26.5136C29.0397 26.3149 28.9997 26.0328 28.8011 25.8834C28.6022 25.734 28.3203 25.7742 28.1709 25.9726C27.9169 26.3103 27.6178 26.612 27.2821 26.8695C27.0848 27.0207 27.0476 27.3033 27.1988 27.5004C27.1996 27.5014 27.2009 27.5017 27.2017 27.5027C26.7967 27.7396 26.4035 27.9578 26.0033 28.0851L26.6684 27.2426C26.8222 27.0475 26.789 26.7645 26.5939 26.6105C26.399 26.4569 26.1158 26.4896 25.9618 26.685L25.1852 27.6691C25.063 27.8238 25.0632 28.0314 25.1641 28.1885C24.837 28.1671 24.5055 28.0852 24.164 27.9756C24.3896 27.7336 24.626 27.5017 24.8836 27.2947C25.0774 27.1389 25.1081 26.8557 24.9523 26.6621C24.7966 26.4681 24.5133 26.438 24.3197 26.5933C23.9215 26.9134 23.5604 27.2784 23.2319 27.67C23.0802 27.624 22.927 27.5816 22.7717 27.5469C22.7901 27.4138 22.7564 27.275 22.6553 27.1714C22.482 26.9935 22.1967 26.9906 22.019 27.1635L21.7127 27.4628C21.159 27.5109 20.6633 27.7134 20.1966 27.9776L20.4104 27.6781C20.5547 27.476 20.5079 27.1949 20.3056 27.0504C20.1034 26.9062 19.8222 26.9526 19.6778 27.1552L19.0254 28.069C18.885 28.2656 18.9283 28.5346 19.1167 28.6824C19.0117 28.7557 18.9068 28.829 18.802 28.8998C18.4066 29.1666 18.0409 29.3563 17.704 29.4748C17.9112 29.1675 18.0965 28.8456 18.2386 28.5028C18.3337 28.2734 18.2248 28.0099 17.9951 27.9148C17.7655 27.8192 17.5023 27.9286 17.4071 28.1582C17.2569 28.521 17.0606 28.8638 16.8244 29.1773C16.7284 29.3046 16.7181 29.4639 16.7698 29.603C16.6323 29.5864 16.5003 29.5563 16.3786 29.5021C16.1978 29.4215 16.0317 29.2978 15.8703 29.1517C15.9457 29.1293 16.0178 29.0943 16.0749 29.0321L16.8563 28.1815C17.0244 27.9985 17.0121 27.7137 16.829 27.5456C16.646 27.3773 16.3612 27.3901 16.1932 27.5729L15.4122 28.4234C15.3674 28.4723 15.3374 28.5287 15.3181 28.5879C15.1566 28.4162 14.9888 28.2454 14.8043 28.0887L15.3901 27.5562C15.574 27.3892 15.5874 27.1044 15.4202 26.9205C15.2532 26.7368 14.9688 26.723 14.7845 26.8904L14.3338 27.3001C14.3767 27.1711 14.3682 27.0267 14.2855 26.906C14.1451 26.7006 13.8654 26.6491 13.6599 26.7889C13.4037 26.9643 13.1706 27.17 12.9524 27.3905C12.3898 27.3724 11.7862 27.4914 11.1709 27.7401C11.133 27.6648 11.0812 27.5959 11.003 27.5502C10.7883 27.4252 10.5128 27.4979 10.3875 27.7126C10.2979 27.8666 10.1711 27.9991 10.021 28.0958C9.88404 28.1841 9.81889 28.3345 9.82262 28.4862C9.16036 28.9418 8.86477 29.191 8.35441 29.5632C8.16391 29.7025 7.98066 29.6387 7.91056 29.6051C7.75192 29.5282 7.65282 29.3698 7.64535 29.1808C7.63931 29.0264 7.62668 28.873 7.6091 28.7208C7.65799 28.7182 7.70743 28.7114 7.75522 28.6919C8.12897 28.539 8.48625 28.3439 8.81738 28.1119C9.02084 27.9695 9.07028 27.6887 8.92768 27.4852C8.78551 27.2822 8.50536 27.2321 8.30102 27.3749C8.03207 27.5633 7.7417 27.7212 7.43925 27.847C7.40409 27.7192 7.36586 27.5923 7.32214 27.4674C7.3073 27.4253 7.28544 27.3879 7.26061 27.3534C7.32719 27.2173 7.33071 27.0537 7.24347 26.9163C7.10988 26.7067 6.83171 26.6445 6.62209 26.7783L5.90424 27.2352C5.78493 27.311 5.72011 27.4344 5.70539 27.5648C4.80209 27.8711 3.60942 28.176 3.38573 27.5718ZM25.9923 34.175C25.8207 34.3451 25.6071 34.5569 25.4149 34.5892C25.2654 34.6158 25.0571 34.5404 24.8728 34.4751C20.1687 32.8087 15.3294 31.0814 10.6789 28.9924C11.0315 28.7724 11.9899 28.2438 12.9554 28.2835C13.0065 28.3028 13.0603 28.3125 13.1139 28.3125C13.1309 28.3125 13.1468 28.304 13.1637 28.3021C13.4545 28.3403 13.7422 28.4329 14.0097 28.6113C14.2743 28.788 14.5096 29.0398 14.7588 29.3065C15.12 29.6932 15.4935 30.0929 16.0123 30.3243C16.9273 30.7317 18.0345 30.5031 19.3054 29.646C19.4379 29.5563 19.5704 29.4638 19.7033 29.3709C20.2976 28.9558 20.8645 28.5629 21.4679 28.4149C21.5484 28.4773 21.6418 28.5162 21.7391 28.5162C21.8527 28.5162 21.966 28.4735 22.0537 28.3878L22.0805 28.3617C22.538 28.3848 23.0036 28.5354 23.494 28.7018C24.1312 28.9176 24.7906 29.1389 25.5045 29.0949C26.3636 29.0398 27.0898 28.6128 27.7921 28.1998C28.3302 27.8833 28.8386 27.5845 29.3778 27.4632C30.3101 27.2532 31.2589 27.5808 32.256 27.9642L25.9923 34.175ZM3.10844 31.807C2.71535 31.8604 2.29743 31.8923 1.97773 31.7872C2.82521 30.9791 3.70697 30.2834 4.40636 29.7501C4.97018 29.3199 5.05566 29.192 5.28241 28.666L5.29812 28.6298C5.77768 28.5025 6.23735 28.3344 6.60275 28.2C6.68449 28.5293 6.73261 28.8695 6.74623 29.216C6.76645 29.735 7.06264 30.1946 7.51879 30.4153C7.96579 30.6317 8.47708 30.5876 8.88505 30.2902C9.07424 30.152 9.26166 30.0103 9.44909 29.8684C9.57093 29.7761 9.69606 29.6839 9.82021 29.5915C10.2219 29.7747 10.6226 29.9598 11.0269 30.1376C8.42286 30.8709 5.77922 31.4424 3.10844 31.807ZM12.3543 30.7059C16.397 32.4178 20.5343 33.8929 24.5724 35.3235C24.782 35.3976 25.0545 35.494 25.3518 35.494C25.4212 35.494 25.492 35.4887 25.5636 35.4769C26.038 35.3973 26.3779 35.0601 26.626 34.814L30.1439 31.3256C31.0306 31.3976 31.9303 31.4066 32.8067 31.4095C34.068 31.4132 34.2332 31.4266 34.374 31.4291C34.9876 31.4483 35.6093 31.465 36.234 31.4707C36.6464 32.4743 36.6016 33.8794 35.7862 34.6472C35.2863 35.1176 34.5961 35.304 33.8113 35.4828C30.3823 36.2635 26.9227 36.7879 23.4493 37.0642L24.5201 36.278C24.7205 36.1308 24.7636 35.8491 24.6166 35.6489C24.4692 35.4483 24.1877 35.4048 23.9875 35.5525L22.9104 36.3433C22.6497 36.5345 22.664 36.9438 22.9691 37.1029C22.253 37.155 21.5362 37.1959 20.8192 37.2266C21.235 37.0907 21.6224 36.8684 21.9434 36.57C22.1256 36.4008 22.1359 36.1161 21.9667 35.9341C21.7973 35.7522 21.5125 35.7419 21.3308 35.9108C21.0825 36.1415 20.7795 36.3114 20.4541 36.4021C20.2146 36.4689 20.0746 36.7172 20.1414 36.9565C20.1789 37.0905 20.2752 37.1891 20.3929 37.242C19.7553 37.2654 19.1174 37.2809 18.4792 37.2874C18.9676 36.9907 19.4429 36.669 19.8857 36.3103C20.0788 36.1541 20.1085 35.8706 19.952 35.6775C19.7956 35.4841 19.5119 35.4545 19.3192 35.6111C18.8105 36.0229 18.2634 36.3953 17.6928 36.7174C17.4889 36.8326 17.4158 37.0817 17.5095 37.2913C17.135 37.2901 16.7605 37.289 16.3859 37.2819C16.8773 37.0886 17.3414 36.8171 17.7435 36.4777C17.9334 36.3175 17.9576 36.0337 17.7972 35.8436C17.637 35.6538 17.3533 35.6287 17.163 35.79C16.7918 36.1033 16.3551 36.3444 15.8949 36.5024C16.0609 36.3372 16.0774 36.0717 15.9216 35.8919C15.759 35.7043 15.4751 35.6834 15.2868 35.8465C14.8273 36.2444 14.3244 36.5959 13.792 36.8915C13.6801 36.9535 13.607 37.0564 13.5769 37.1711C13.2785 37.1538 12.9801 37.1345 12.6818 37.1135C13.1628 36.9482 13.5962 36.6432 13.9054 36.2398C14.0565 36.0427 14.0194 35.7601 13.8221 35.6089C13.625 35.4582 13.3424 35.4951 13.1913 35.6922C12.9786 35.9695 12.6771 36.1793 12.3427 36.2826C12.1054 36.356 11.9722 36.608 12.0456 36.8456C12.0759 36.9435 12.137 37.0232 12.2146 37.0785C11.87 37.052 11.5255 37.0242 11.1811 36.9928C11.2124 36.9848 11.2435 36.9742 11.2735 36.9589C11.647 36.7693 11.9861 36.5223 12.2811 36.2253C12.456 36.0488 12.4549 35.7638 12.2787 35.5887C12.1018 35.4136 11.8173 35.4147 11.6422 35.5911C11.415 35.8201 11.1539 36.0104 10.8661 36.1565C10.5388 36.3226 10.5299 36.8038 10.8863 36.9641C10.4387 36.9215 9.99137 36.8755 9.54401 36.8245C9.55763 36.8183 9.57192 36.815 9.5851 36.8073C9.97995 36.5766 10.3374 36.2639 10.6191 35.9031C10.7718 35.7071 10.7371 35.4244 10.5411 35.2714C10.3456 35.1189 10.0628 35.1539 9.90942 35.3494C9.69738 35.6212 9.42822 35.8566 9.13114 36.0304C8.91647 36.1558 8.84418 36.4314 8.96965 36.6458C8.99898 36.6961 9.03853 36.7353 9.0816 36.7693C8.72033 36.7257 8.38045 36.6929 7.80169 36.6035C8.06152 36.3946 8.30684 36.1689 8.51767 35.9086C8.67411 35.7157 8.64445 35.4323 8.45131 35.2758C8.25839 35.1194 7.97516 35.1488 7.8185 35.3422C7.56054 35.6603 7.25446 35.9339 6.90861 36.1547C6.82237 36.2098 6.76842 36.2921 6.73569 36.3814C6.61396 36.3472 6.49421 36.3093 6.37665 36.2674L7.47001 35.4848C7.67216 35.3402 7.71874 35.0592 7.57394 34.857C7.42914 34.6551 7.14833 34.6076 6.94618 34.7531L5.7579 35.6032C5.66001 35.6734 5.60036 35.776 5.57948 35.8856C5.49423 35.8322 5.41161 35.7773 5.33405 35.7196C5.66759 35.4363 6.01608 35.1681 6.37995 34.9282C6.58737 34.7913 6.6445 34.5121 6.50783 34.3046C6.37094 34.0974 6.09211 34.0405 5.88425 34.1768C5.47006 34.4502 5.07258 34.7557 4.69519 35.0808C4.57467 34.9147 4.4758 34.7374 4.39812 34.5494C4.63642 34.3952 4.8668 34.228 5.07719 34.0363C5.26088 33.8691 5.27428 33.5846 5.10685 33.4007C4.93964 33.217 4.65531 33.2031 4.47118 33.371C4.38274 33.4515 4.28793 33.5244 4.19312 33.5971C4.18851 33.5035 4.18246 33.4106 4.18554 33.3132C4.19367 33.0594 4.2341 32.8005 4.29694 32.5405C7.01606 32.1173 9.70848 31.5009 12.3543 30.7059ZM15.5107 37.2561C15.3181 37.2501 15.1255 37.246 14.9329 37.2384C15.1099 37.1194 15.2788 36.9909 15.4474 36.8607C15.4039 37.0044 15.4177 37.1311 15.5107 37.2561ZM38.7861 36.9293C38.8202 37.7948 38.4618 38.7176 37.8026 39.4607C37.2553 40.0782 36.4965 40.5963 35.4832 41.0454C33.8163 41.7837 32.0436 42.1361 29.8946 42.4383C29.1404 42.5443 28.3837 42.6356 27.6259 42.7195L27.8213 42.4976C27.9854 42.311 27.9676 42.0267 27.7811 41.8623C27.5945 41.6978 27.3102 41.7164 27.1459 41.9026L26.6425 42.4743C26.5527 42.5763 26.5223 42.7068 26.5393 42.8317C26.0788 42.8762 25.6177 42.915 25.1563 42.9514L25.7754 42.182C25.9312 41.9885 25.9005 41.705 25.7069 41.5492C25.5131 41.3937 25.2301 41.4238 25.0741 41.6178L24.2923 42.5892C24.1897 42.7167 24.1754 42.881 24.2279 43.0243C23.6826 43.0608 23.1368 43.0889 22.5909 43.114L23.4055 42.4191C23.5946 42.2579 23.6171 41.9737 23.4558 41.7848C23.2943 41.5956 23.0102 41.573 22.8214 41.7345L21.9944 42.44C21.8052 42.6013 21.7828 42.8854 21.9441 43.0744C21.9681 43.1026 22.0002 43.1176 22.0291 43.1383C21.295 43.1668 20.5608 43.1828 19.8266 43.1906C20.2987 42.8701 20.748 42.5114 21.1585 42.1166C21.3378 41.9443 21.3433 41.6595 21.1711 41.4805C20.9988 41.3009 20.714 41.2959 20.535 41.4679C20.1386 41.8489 19.7048 42.1966 19.246 42.5013C19.0391 42.6386 18.9826 42.9179 19.1201 43.1251C19.1374 43.1512 19.1584 43.1729 19.1797 43.1941C18.5915 43.1955 18.0036 43.19 17.4158 43.1781C17.8167 42.9132 18.2039 42.6271 18.5561 42.3C18.7383 42.1309 18.7488 41.8463 18.5798 41.6642C18.4102 41.4816 18.1254 41.4712 17.9439 41.6404C17.5029 42.0496 17.0152 42.4081 16.4937 42.7057C16.3319 42.798 16.2493 42.9755 16.2698 43.1495C16.0586 43.1421 15.8477 43.1309 15.6366 43.1218L16.2498 42.6698C16.45 42.5222 16.4926 42.2405 16.3452 42.0405C16.1976 41.8402 15.9159 41.7975 15.7159 41.9452L14.6401 42.738C14.5298 42.8194 14.4727 42.9416 14.4636 43.0683C14.1119 43.0486 13.7497 43.0281 13.3821 43.0054C13.7349 42.7888 14.0196 42.4679 14.1835 42.0876C14.2818 41.8593 14.1765 41.5945 13.9484 41.4961C13.7195 41.3974 13.4551 41.5029 13.3569 41.7312C13.2607 41.9546 13.0908 42.1436 12.8788 42.2631C12.6622 42.3851 12.5857 42.6595 12.7076 42.8759C12.7265 42.9095 12.75 42.9388 12.7754 42.9654C12.4289 42.9413 12.0784 42.9138 11.7251 42.882L12.1689 42.58C12.3743 42.44 12.4273 42.1601 12.2875 41.9546C12.1476 41.7494 11.8678 41.6967 11.6622 41.836L10.9224 42.3398C10.7743 42.4405 10.7088 42.6139 10.7341 42.7799C10.4071 42.7416 10.0804 42.6976 9.75429 42.6478L10.1889 42.3319C10.39 42.1856 10.4346 41.9043 10.2884 41.7033C10.1421 41.502 9.86042 41.4576 9.65981 41.6037L9.03688 42.0566C8.89472 42.16 8.83561 42.3308 8.86198 42.4932C8.55129 42.433 8.24257 42.368 7.93847 42.2929L8.4957 41.8747C8.69455 41.7255 8.73476 41.4433 8.58556 41.2447C8.43681 41.0463 8.15446 41.0056 7.95561 41.1548L7.27621 41.6644C7.14833 41.7604 7.09417 41.9112 7.10571 42.0596C6.69163 41.9322 6.28887 41.7865 5.90018 41.6206L6.59946 41.005C6.786 40.8408 6.80424 40.5565 6.63988 40.37C6.47575 40.1836 6.19142 40.1647 6.00488 40.3295L5.04137 41.1779C5.03445 41.1839 5.03182 41.1925 5.02544 41.1989C4.82033 41.0862 4.61939 40.9681 4.42636 40.8402C4.40329 40.8249 4.38175 40.8044 4.35978 40.7857L5.01457 40.355C5.22221 40.2184 5.27978 39.9393 5.14311 39.7317C5.00644 39.5242 4.7276 39.4671 4.51974 39.6031L3.93099 39.9903C3.88429 39.8161 3.84771 39.6244 3.82563 39.4137C3.70862 38.2999 3.96812 36.9392 4.40395 36.1154C4.62181 36.323 4.87922 36.5205 5.1831 36.7023C6.11672 37.2611 7.16305 37.4342 8.24257 37.5755C16.8991 38.7068 25.5664 38.2831 34.0112 36.3604C34.893 36.1593 35.7394 35.9273 36.4032 35.3024C36.7279 34.9967 36.967 34.6026 37.1325 34.1662C38.1099 34.8607 38.745 35.8902 38.7861 36.9293ZM34.4021 30.5295H34.4023C33.2149 30.4923 32.2867 30.5305 31.0011 30.4757L33.1803 28.3148C33.3917 28.3913 33.6047 28.4645 33.8187 28.5278C35.2641 28.9552 36.8315 28.9557 38.2839 28.5449C38.5533 29.1797 38.8237 29.8146 39.0856 30.4491C37.5359 30.6282 35.9457 30.5783 34.4021 30.5295Z" fill="white"/>
<path d="M10.546 13.9015C10.6728 13.9487 10.8712 14.0065 11.0848 14.0065C11.4948 14.0065 11.7771 13.7895 11.8795 13.4798C11.9689 13.2096 11.8865 12.9646 11.8318 12.8026L11.8131 12.7286C11.9298 12.6108 11.9766 12.4331 11.9193 12.2656C11.8386 12.0307 11.5827 11.9046 11.3478 11.9859C10.9859 12.1098 10.8116 12.5359 10.9424 12.9764L10.9788 13.0898C10.9793 13.0909 10.9797 13.092 10.9802 13.0933C10.945 13.0859 10.9046 13.0747 10.8606 13.0582C10.6286 12.9712 10.3687 13.0896 10.2817 13.3225C10.1949 13.5554 10.3131 13.8145 10.546 13.9015Z" fill="white"/>
<path d="M23.6957 11.3335C23.6979 11.3313 23.7001 11.3294 23.7025 11.3272C23.8414 11.6122 24.0584 11.8521 24.3281 12.0112C24.541 12.1369 24.8176 12.0671 24.9444 11.8523C25.0707 11.6383 24.9995 11.3623 24.7855 11.236C24.6225 11.1397 24.4979 10.9637 24.4522 10.7651C24.4177 10.6153 24.3089 10.4935 24.1641 10.4421C23.7823 10.3063 23.3496 10.407 23.0598 10.6968C22.8838 10.8723 22.8838 11.1573 23.0594 11.3331C23.2349 11.5093 23.5197 11.5089 23.6957 11.3335Z" fill="white"/>
<path d="M32.5428 17.5571C32.768 17.4523 32.8656 17.1844 32.7606 16.9592C32.6977 16.8241 32.576 16.7349 32.44 16.7078C32.4798 16.556 32.4389 16.3879 32.3183 16.2708C32.1401 16.0979 31.8553 16.1016 31.6819 16.28C31.427 16.5424 31.4119 16.955 31.6452 17.2835C31.8587 17.5838 32.2266 17.7049 32.5428 17.5571Z" fill="white"/>
<path d="M19.9447 17.5929C20.0265 17.6206 20.1104 17.6342 20.193 17.6342C20.3299 17.6342 20.4637 17.5971 20.5802 17.5239C20.7907 17.3919 20.8544 17.1141 20.7224 16.9036C20.6189 16.7386 20.4264 16.6626 20.2451 16.703C20.1276 16.5499 19.9201 16.4839 19.7303 16.5556C19.4976 16.6426 19.3796 16.9019 19.4666 17.1348C19.5473 17.3503 19.7215 17.5175 19.9447 17.5929Z" fill="white"/>
<path d="M8.648 19.4487C8.85986 19.5812 9.13697 19.5161 9.26851 19.3068C9.39573 19.1037 9.34124 18.8383 9.14876 18.7012C9.15337 18.4593 8.96529 18.2558 8.72205 18.2433C8.47508 18.2281 8.26216 18.4211 8.24942 18.6693C8.23338 18.9807 8.38982 19.2866 8.648 19.4487Z" fill="white"/>
<path d="M28.5403 21.5368C28.5917 21.5429 28.6431 21.546 28.6945 21.546C29.2863 21.546 29.8622 21.1452 30.0755 20.5632C30.161 20.3298 30.0413 20.0712 29.8079 19.9857C29.5743 19.9 29.3162 20.0202 29.2305 20.2533C29.1413 20.4966 28.8787 20.6704 28.648 20.6434C28.3975 20.6128 28.1771 20.7895 28.1474 21.0362C28.1178 21.283 28.2935 21.5071 28.5403 21.5368Z" fill="white"/>
<path d="M5.46083 22.6396C5.58455 22.8547 5.85961 22.9295 6.07519 22.8057L7.23578 22.1397C7.45155 22.016 7.52604 21.7411 7.40256 21.5256C7.27885 21.3098 7.00419 21.2353 6.78842 21.3588L5.62695 22.0252C5.41139 22.1489 5.33713 22.424 5.46083 22.6396Z" fill="white"/>
<path d="M7.25225 22.6539C7.34284 22.8829 7.60327 22.999 7.83629 22.9066C8.17181 22.7738 8.49261 22.602 8.79012 22.3961C8.99447 22.2546 9.04566 21.9745 8.90416 21.7701C8.76287 21.5653 8.48228 21.5146 8.27816 21.6561C8.0369 21.8231 7.77674 21.9622 7.50494 22.0698C7.27379 22.1612 7.16063 22.4227 7.25225 22.6539Z" fill="white"/>
<path d="M8.83102 23.4638C8.97795 23.6657 9.25979 23.7084 9.45966 23.5629L10.769 22.6106C10.9701 22.4644 11.0142 22.183 10.8681 21.9819C10.7218 21.7809 10.4405 21.7356 10.2395 21.8828L8.93012 22.8351C8.72907 22.9812 8.6849 23.2627 8.83102 23.4638Z" fill="white"/>
<path d="M11.2037 23.337C11.3148 23.5571 11.585 23.648 11.8083 23.5352L12.6813 23.0931C12.903 22.9806 12.9916 22.7099 12.8793 22.4882C12.7668 22.2669 12.4965 22.1779 12.2744 22.2902L11.4019 22.7323C11.1801 22.8444 11.0914 23.1151 11.2037 23.337Z" fill="white"/>
<path d="M12.7033 23.7756C12.7639 24.0161 13.0079 24.1623 13.2498 24.1018C13.7687 23.9711 14.268 23.7714 14.7338 23.5086C14.9504 23.3864 15.0267 23.112 14.9047 22.8955C14.7826 22.6793 14.5081 22.6033 14.2917 22.7246C13.8955 22.9481 13.471 23.1179 13.0296 23.2291C12.7888 23.29 12.6426 23.5345 12.7033 23.7756Z" fill="white"/>
<path d="M14.8841 23.7507C14.9346 23.9965 15.1755 24.1509 15.4156 24.1008C15.8953 24.0019 16.3413 23.7764 16.705 23.4484C16.8895 23.2818 16.904 22.9973 16.7377 22.8127C16.5711 22.6288 16.287 22.6137 16.102 22.78C15.8573 23.0008 15.5571 23.1526 15.2341 23.2192C14.9907 23.2693 14.834 23.5073 14.8841 23.7507Z" fill="white"/>
<path d="M18.1137 23.8079C18.6705 23.6927 19.1897 23.3994 19.5756 22.9824C19.7443 22.7998 19.7333 22.5152 19.551 22.3465C19.3684 22.1771 19.0834 22.1887 18.9151 22.3711C18.6554 22.6517 18.306 22.849 17.9314 22.9268C17.6879 22.9771 17.5315 23.2153 17.582 23.4585C17.6324 23.7024 17.8709 23.8582 18.1137 23.8079Z" fill="white"/>
<path d="M19.9828 23.6494C20.0255 23.8634 20.2133 24.0113 20.4236 24.0113C20.4528 24.0113 20.4825 24.0085 20.5122 24.0025C20.9149 23.9223 21.2906 23.7364 21.5985 23.4653C21.785 23.3012 21.8033 23.0168 21.6389 22.8303C21.4746 22.644 21.1904 22.6251 21.0039 22.7899C20.8145 22.9564 20.5836 23.0707 20.3359 23.1201C20.0923 23.1687 19.9341 23.4057 19.9828 23.6494Z" fill="white"/>
<path d="M22.5466 24.315C22.6345 24.315 22.7232 24.2893 22.8013 24.2357L23.8843 23.4915C24.0893 23.3508 24.1414 23.0707 24.0005 22.8659C23.8599 22.6611 23.58 22.6086 23.375 22.7497L22.291 23.4943C22.0865 23.6352 22.0346 23.9153 22.1755 24.1201C22.2627 24.2469 22.4033 24.315 22.5466 24.315Z" fill="white"/>
<path d="M17.9081 8.995C18.0995 9.11101 18.261 9.27383 18.3757 9.46565C18.5036 9.67919 18.7799 9.74817 18.9929 9.621C19.206 9.49356 19.2757 9.21714 19.1482 9.00379C18.9586 8.68672 18.6914 8.41755 18.3752 8.22551C18.163 8.09675 17.8861 8.16399 17.7569 8.37669C17.628 8.58916 17.6956 8.86602 17.9081 8.995Z" fill="white"/>
</svg>
